<?xml version="1.0" standalone="no"?>
<!DOCTYPE svg PUBLIC "-//W3C//DTD SVG 20010904//EN"
 "http://www.w3.org/TR/2001/REC-SVG-20010904/DTD/svg10.dtd">
<svg version="1.0" xmlns="http://www.w3.org/2000/svg"
 width="512.000000pt" height="512.000000pt" viewBox="0 0 512.000000 512.000000"
 preserveAspectRatio="xMidYMid meet">

<g transform="translate(0.000000,512.000000) scale(0.100000,-0.100000)"
fill="#000000" stroke="none">
<path d="M770 2815 l0 -2305 -255 0 -255 0 0 -255 0 -255 2300 0 2300 0 0 255
0 255 -255 0 -255 0 0 2305 0 2305 -1790 0 -1790 0 0 -2305z m1020 1540 l0
-255 -255 0 -255 0 0 255 0 255 255 0 255 0 0 -255z m1028 -2 l2 -253 -260 0
-260 0 0 248 c0 137 3 252 7 256 4 3 119 5 257 4 l251 -3 3 -252z m1022 2 l0
-255 -255 0 -255 0 0 255 0 255 255 0 255 0 0 -255z m-2050 -1030 l0 -255
-255 0 -255 0 0 255 0 255 255 0 255 0 0 -255z m1028 3 l-3 -253 -255 0 -255
0 -3 253 -2 252 260 0 260 0 -2 -252z m1022 -3 l0 -255 -255 0 -255 0 0 255 0
255 255 0 255 0 0 -255z m-2050 -1020 l0 -255 -255 0 -255 0 0 255 0 255 255
0 255 0 0 -255z m1030 0 l0 -255 -260 0 -260 0 0 255 0 255 260 0 260 0 0
-255z m1020 0 l0 -255 -255 0 -255 0 0 255 0 255 255 0 255 0 0 -255z m-1115
-799 c127 -46 230 -136 290 -256 50 -100 55 -142 55 -455 l0 -285 -510 0 -510
0 0 285 c0 313 5 355 55 455 116 231 383 341 620 256z"/>
</g>
</svg>
